<svg xmlns="http://www.w3.org/2000/svg" width="350" height="100" viewBox="0 0 350 100" fill="none"><path d="M80.4956 23.0289V27.3514C80.4909 27.8946 80.2805 28.4156 79.9069 28.8087C79.5334 29.2018 79.0247 29.4374 78.4843 29.4678C73.7544 29.8024 69.0162 32.6097 69.0162 39.9409V56.6434C69.0162 57.214 68.7903 57.7613 68.3882 58.1649C67.9862 58.5684 67.4408 58.7951 66.8722 58.7951H63.1071C62.539 58.7944 61.9943 58.5674 61.5928 58.1639C61.1913 57.7605 60.9658 57.2136 60.9658 56.6434V23.5403C60.9658 22.9701 61.1913 22.4232 61.5928 22.0198C61.9943 21.6163 62.539 21.3893 63.1071 21.3886H66.8722C67.1537 21.3886 67.4325 21.4443 67.6927 21.5524C67.9528 21.6605 68.1891 21.819 68.3882 22.0188C68.5873 22.2186 68.7453 22.4558 68.853 22.7169C68.9608 22.978 69.0162 23.2578 69.0162 23.5403V27.6724C70.8567 23.4859 74.2775 21.4648 78.0317 20.899C78.337 20.8527 78.6487 20.8732 78.9454 20.9591C79.2421 21.0449 79.5169 21.1941 79.7508 21.3963C79.9848 21.5986 80.1725 21.8492 80.301 22.1309C80.4296 22.4127 80.4959 22.719 80.4956 23.0289Z" fill="#F6A131"></path><path d="M178.392 24.185L168.034 57.2908C167.898 57.7275 167.626 58.1091 167.258 58.3801C166.891 58.6511 166.447 58.7974 165.991 58.7978H161.244C160.786 58.7979 160.34 58.6505 159.971 58.3773C159.602 58.1041 159.33 57.7195 159.195 57.2799L151.909 33.5863L144.55 57.2853C144.414 57.7235 144.142 58.1066 143.774 58.3787C143.406 58.6508 142.96 58.7977 142.503 58.7978H137.754C137.298 58.7976 136.853 58.6514 136.485 58.3804C136.117 58.1094 135.845 57.7277 135.708 57.2908L125.351 24.185C125.249 23.862 125.225 23.5195 125.28 23.1853C125.335 22.8512 125.469 22.5349 125.669 22.2622C125.869 21.9896 126.131 21.7683 126.433 21.6165C126.734 21.4647 127.068 21.3866 127.405 21.3886H131.36C131.828 21.3879 132.283 21.5409 132.656 21.8244C133.029 22.1078 133.299 22.5061 133.425 22.9582L140.215 47.1986L147.58 22.912C147.714 22.4709 147.986 22.0848 148.356 21.8105C148.725 21.5362 149.173 21.3883 149.632 21.3886H154.129C154.589 21.3882 155.038 21.5368 155.407 21.8121C155.777 22.0875 156.048 22.4751 156.181 22.9174L163.456 47.1986L170.319 22.95C170.446 22.5001 170.716 22.1041 171.088 21.8222C171.46 21.5403 171.913 21.3881 172.379 21.3886H176.34C176.677 21.387 177.01 21.4654 177.311 21.6174C177.613 21.7694 177.874 21.9907 178.074 22.2633C178.274 22.5359 178.407 22.852 178.462 23.186C178.517 23.5199 178.493 23.8623 178.392 24.185Z" fill="#F6A131"></path><path d="M184.108 10.6136C184.104 9.44565 184.496 8.31107 185.219 7.39569C185.942 6.48031 186.953 5.83841 188.087 5.57511C189.221 5.31182 190.41 5.44274 191.46 5.94644C192.51 6.45014 193.358 7.29675 193.866 8.34761C195.601 11.9275 192.847 15.7767 189.258 15.7767C187.898 15.7625 186.597 15.2142 185.634 14.2491C184.671 13.2841 184.124 11.979 184.108 10.6136ZM187.361 21.3886H191.126C191.694 21.3893 192.239 21.6163 192.64 22.0198C193.042 22.4232 193.267 22.9701 193.267 23.5403V56.6434C193.267 57.2136 193.042 57.7605 192.64 58.1639C192.239 58.5674 191.694 58.7944 191.126 58.7951H187.372C186.803 58.7951 186.258 58.5684 185.856 58.1649C185.454 57.7613 185.228 57.214 185.228 56.6434V23.5403C185.228 22.9697 185.454 22.4224 185.856 22.0188C186.258 21.6153 186.803 21.3886 187.372 21.3886H187.361Z" fill="#F6A131"></path><path d="M236.515 35.8278V56.6434C236.515 57.214 236.289 57.7613 235.887 58.1649C235.485 58.5684 234.939 58.7951 234.371 58.7951H230.606C230.037 58.7951 229.492 58.5684 229.09 58.1649C228.688 57.7613 228.462 57.214 228.462 56.6434V36.6493C228.462 30.964 225.182 27.9717 220.113 27.9717C214.822 27.9717 210.648 31.1136 210.648 38.744V56.6434C210.648 57.214 210.422 57.7613 210.02 58.1649C209.618 58.5684 209.072 58.7951 208.504 58.7951H204.738C204.17 58.7951 203.624 58.5684 203.222 58.1649C202.82 57.7613 202.594 57.214 202.594 56.6434V23.5403C202.594 22.9697 202.82 22.4224 203.222 22.0188C203.624 21.6153 204.17 21.3886 204.738 21.3886H208.504C209.072 21.3886 209.618 21.6153 210.02 22.0188C210.422 22.4224 210.648 22.9697 210.648 23.5403V26.1763C213.106 22.2809 217.126 20.4147 222.2 20.4147C230.551 20.4147 236.515 26.0892 236.515 35.8278Z" fill="#F6A131"></path><path d="M243.961 32.6179C243.961 17.6564 255.223 5.60285 271.102 5.60285C280.096 5.60285 288.043 9.91993 292.573 16.7206C292.693 16.9043 292.774 17.1107 292.812 17.3271C292.849 17.5435 292.843 17.7654 292.792 17.9791C292.741 18.1928 292.647 18.3938 292.517 18.5699C292.386 18.7459 292.22 18.8933 292.031 19.0029L291.345 19.3974C290.983 19.602 290.556 19.6596 290.153 19.5584C289.749 19.4573 289.4 19.2049 289.176 18.8533C285.501 13.1652 278.722 9.42212 271.107 9.42212C257.389 9.42212 247.921 19.7592 247.921 32.6152C247.921 45.4712 257.389 55.8082 271.107 55.8082C278.795 55.8082 285.647 51.9999 289.331 46.173C289.551 45.8182 289.899 45.5619 290.303 45.4571C290.707 45.3523 291.135 45.407 291.499 45.6099L292.19 46.0098C292.379 46.1176 292.545 46.2628 292.676 46.4367C292.807 46.6106 292.902 46.8094 292.954 47.0211C293.006 47.2329 293.015 47.453 292.98 47.6683C292.944 47.8835 292.866 48.0893 292.749 48.2731C288.274 55.1663 280.242 59.6221 271.102 59.6221C255.223 59.6166 243.961 47.5794 243.961 32.6179Z" fill="#F6A131"></path><path d="M299.276 40.0905C299.276 29.019 307.999 20.5644 318.884 20.5644C329.692 20.5644 338.401 29.019 338.401 40.0905C338.401 51.162 329.678 59.6166 318.884 59.6166C307.999 59.6166 299.276 51.1647 299.276 40.0905ZM334.611 40.0905C334.611 31.3285 327.968 24.3782 319.299 24.1606C310.511 23.9429 303.079 31.2686 303.079 40.0905C303.079 48.8416 309.78 55.7865 318.432 56.0204C327.206 56.2571 334.611 48.8987 334.611 40.0905Z" fill="#F6A131"></path><path d="M343.258 56.1755C343.25 55.7397 343.328 55.3067 343.487 54.9013C343.646 54.4958 343.884 54.1261 344.186 53.8133C344.489 53.5005 344.85 53.2508 345.249 53.0787C345.648 52.9066 346.077 52.8154 346.511 52.8105C346.958 52.7927 347.403 52.8646 347.822 53.0221C348.241 53.1796 348.624 53.4195 348.949 53.7276C349.274 54.0358 349.534 54.406 349.715 54.8166C349.895 55.2271 349.992 55.6697 350 56.1184C350.007 56.567 349.925 57.0127 349.759 57.4292C349.592 57.8456 349.345 58.2245 349.03 58.5436C348.716 58.8626 348.341 59.1154 347.928 59.2871C347.515 59.4587 347.072 59.5458 346.625 59.5432C346.181 59.5532 345.739 59.473 345.327 59.3074C344.915 59.1418 344.54 58.8943 344.226 58.5797C343.911 58.2651 343.664 57.89 343.497 57.4768C343.331 57.0636 343.25 56.621 343.258 56.1755Z" fill="#F6A131"></path><path d="M53.5279 34.3534C53.5358 33.9722 53.4688 33.5932 53.3307 33.238C53.1926 32.8828 52.9862 32.5584 52.7231 32.2833C52.4601 32.0082 52.1456 31.7878 51.7977 31.6347C51.4497 31.4816 51.0751 31.3988 50.6953 31.3911L30.4011 30.9232C29.6344 30.9071 28.8928 31.1973 28.3393 31.7298C27.7857 32.2624 27.4656 32.9938 27.4492 33.7631L27.3273 36.5079C27.3113 37.2773 27.6004 38.0215 28.1311 38.5771C28.6617 39.1326 29.3905 39.4538 30.1571 39.4703L43.5177 39.3941C40.6146 45.3787 34.8763 52.057 24.5001 51.2028C11.9826 50.1718 8.09288 37.9252 8.90334 30.3329C10.2071 18.1814 22.7464 12.5314 30.7968 14.12C38.0477 15.5618 40.0318 19.0628 42.4253 22.153C43.2385 23.1949 44.5938 24.4625 46.8869 22.6644L48.6488 21.1655C50.1098 20.2162 51.3594 18.7173 50.2752 17.0171C46.2662 10.8557 40.4709 7.36287 32.5343 5.9048C17.355 3.11652 3.49841 12.4879 0.549286 27.5446C-2.35105 42.4598 6.40418 57.9165 22.7952 59.6874C31.7781 60.6558 41.7205 56.3523 45.369 46.7851L45.1386 55.8191C45.1303 56.2002 45.197 56.5791 45.3348 56.9343C45.4726 57.2895 45.6788 57.6139 45.9416 57.8891C46.2044 58.1642 46.5187 58.3846 46.8665 58.5378C47.2143 58.6909 47.5887 58.7737 47.9685 58.7815H50.576C51.3427 58.7975 52.0843 58.5074 52.6378 57.9748C53.1914 57.4423 53.5115 56.7109 53.5279 55.9415V34.3534Z" fill="#F6A131"></path><path d="M93.6311 48.0745C91.7086 45.8662 90.6669 43.0227 90.7064 40.0905C90.7064 33.2898 95.7779 28.2709 102.338 28.2709C105.285 28.2398 108.134 29.3393 110.301 31.3448L115.91 25.7166C112.226 22.2753 107.37 20.3785 102.338 20.4147C91.4545 20.4147 82.656 28.9428 82.656 40.0905C82.6255 45.1532 84.5556 50.0299 88.0392 53.6919L93.6311 48.0745Z" fill="#F6A131"></path><path d="M111.413 32.52C113.107 34.6739 114.012 37.3466 113.977 40.0905C113.977 46.8912 108.908 51.9101 102.348 51.9101C99.5853 51.9435 96.9009 50.9866 94.7777 49.2116L89.1858 54.8099C92.8127 58.0244 97.4907 59.7885 102.329 59.7662C113.288 59.7662 122.008 51.1647 122.008 40.0905C122.049 35.214 120.273 30.4983 117.029 26.8672L111.413 32.52Z" fill="#6FC1ED"></path><path d="M10.5404 77.7914C10.0657 77.7914 9.6419 77.8931 9.26894 78.0966C8.89598 78.2932 8.57726 78.5814 8.3128 78.9612C8.04834 79.3409 7.8449 79.8054 7.7025 80.3547C7.56688 80.8972 7.49907 81.5143 7.49907 82.2059C7.49907 83.1417 7.61774 83.9283 7.85508 84.5658C8.09241 85.2032 8.45181 85.6846 8.93327 86.0101C9.42151 86.3356 10.0318 86.4984 10.7642 86.4984C11.4287 86.4984 12.0662 86.4068 12.6765 86.2237C13.2935 86.0407 13.914 85.8203 14.5379 85.5626V88.9599C13.8801 89.2515 13.2054 89.4617 12.5137 89.5906C11.8288 89.7194 11.0998 89.7838 10.3268 89.7838C8.71289 89.7838 7.39057 89.4651 6.35984 88.8277C5.33589 88.1835 4.5798 87.2918 4.09155 86.1525C3.6101 85.0133 3.36937 83.691 3.36937 82.1856C3.36937 81.0599 3.52533 80.0292 3.83726 79.0934C4.15598 78.1576 4.62048 77.3473 5.23078 76.6624C5.84108 75.9707 6.59379 75.4384 7.4889 75.0654C8.39078 74.6857 9.42151 74.4958 10.5811 74.4958C11.2999 74.4958 12.056 74.5806 12.8494 74.7501C13.6495 74.9128 14.4294 75.1773 15.1889 75.5435L13.9581 78.7069C13.4156 78.4492 12.8663 78.2322 12.3103 78.0559C11.7542 77.8796 11.1643 77.7914 10.5404 77.7914Z" fill="#F6A131"></path><path d="M22.5938 74.7094C24.479 74.7094 25.8895 75.1197 26.8253 75.9402C27.7678 76.7607 28.2391 77.927 28.2391 79.4392C28.2391 80.1173 28.1408 80.7683 27.9441 81.3922C27.7543 82.0161 27.4389 82.5721 26.9982 83.0604C26.5642 83.5486 25.9844 83.9351 25.2588 84.2199C24.54 84.5047 23.6517 84.6471 22.5938 84.6471H21.4648V89.5804H17.447V74.7094H22.5938ZM22.5023 77.9542H21.4648V81.3719H22.2582C22.604 81.3719 22.9261 81.3142 23.2245 81.1989C23.5228 81.0769 23.7602 80.8836 23.9365 80.6192C24.1196 80.3479 24.2111 79.9885 24.2111 79.541C24.2111 79.0731 24.0721 78.6933 23.7941 78.4017C23.5161 78.1034 23.0855 77.9542 22.5023 77.9542Z" fill="#F6A131"></path><path d="M36.5799 80.8734H42.9982V88.8887C42.232 89.1532 41.3538 89.3702 40.3638 89.5397C39.3737 89.7025 38.3362 89.7838 37.2512 89.7838C35.8204 89.7838 34.5659 89.5058 33.4877 88.9498C32.4095 88.3937 31.5686 87.5495 30.9651 86.417C30.3616 85.2778 30.0598 83.8402 30.0598 82.1042C30.0598 80.5446 30.3582 79.1985 30.955 78.0661C31.5517 76.9268 32.4298 76.0487 33.5894 75.4316C34.7558 74.8077 36.1832 74.4958 37.8717 74.4958C38.8007 74.4958 39.6823 74.584 40.5163 74.7603C41.3504 74.9366 42.076 75.1604 42.6931 75.4316L41.4216 78.5848C40.8859 78.3204 40.3299 78.1237 39.7535 77.9949C39.1771 77.8592 38.5566 77.7914 37.892 77.7914C37.0037 77.7914 36.2883 77.9915 35.7458 78.3916C35.2101 78.7916 34.8202 79.3273 34.5761 79.9987C34.332 80.6632 34.2099 81.399 34.2099 82.2059C34.2099 83.1282 34.3387 83.908 34.5964 84.5454C34.8609 85.1761 35.244 85.6575 35.7458 85.9898C36.2544 86.3153 36.8681 86.478 37.5869 86.478C37.8242 86.478 38.1124 86.4611 38.4515 86.4272C38.7973 86.3933 39.0584 86.3526 39.2347 86.3051V83.9758H36.5799V80.8734Z" fill="#F6A131"></path><path d="M58.0625 77.7914C57.5878 77.7914 57.164 77.8931 56.791 78.0966C56.4181 78.2932 56.0993 78.5814 55.8349 78.9612C55.5704 79.3409 55.367 79.8054 55.2246 80.3547C55.089 80.8972 55.0211 81.5143 55.0211 82.2059C55.0211 83.1417 55.1398 83.9283 55.3772 84.5658C55.6145 85.2032 55.9739 85.6846 56.4554 86.0101C56.9436 86.3356 57.5539 86.4984 58.2863 86.4984C58.9508 86.4984 59.5882 86.4068 60.1985 86.2237C60.8156 86.0407 61.4361 85.8203 62.0599 85.5626V88.9599C61.4022 89.2515 60.7275 89.4617 60.0358 89.5906C59.3509 89.7194 58.6219 89.7838 57.8489 89.7838C56.235 89.7838 54.9126 89.4651 53.8819 88.8277C52.858 88.1835 52.1019 87.2918 51.6136 86.1525C51.1322 85.0133 50.8914 83.691 50.8914 82.1856C50.8914 81.0599 51.0474 80.0292 51.3593 79.0934C51.6781 78.1576 52.1426 77.3473 52.7529 76.6624C53.3632 75.9707 54.1159 75.4384 55.011 75.0654C55.9129 74.6857 56.9436 74.4958 58.1032 74.4958C58.822 74.4958 59.5781 74.5806 60.3714 74.7501C61.1716 74.9128 61.9514 75.1773 62.7109 75.5435L61.4802 78.7069C60.9377 78.4492 60.3884 78.2322 59.8323 78.0559C59.2763 77.8796 58.6863 77.7914 58.0625 77.7914Z" fill="#F6A131"></path><path d="M75.7409 83.7927C75.7409 84.7556 75.6086 85.6101 75.3442 86.356C75.0797 87.1019 74.6966 87.7292 74.1948 88.2377C73.693 88.7463 73.086 89.1328 72.374 89.3973C71.662 89.655 70.8584 89.7838 69.9633 89.7838C69.1293 89.7838 68.363 89.655 67.6645 89.3973C66.9729 89.1328 66.3693 88.7463 65.854 88.2377C65.3386 87.7292 64.9385 87.1019 64.6537 86.356C64.3757 85.6101 64.2367 84.7556 64.2367 83.7927C64.2367 82.5179 64.4672 81.4397 64.9284 80.5581C65.3963 79.6766 66.0608 79.0052 66.922 78.5441C67.79 78.083 68.8241 77.8525 70.0244 77.8525C71.1297 77.8525 72.113 78.083 72.9742 78.5441C73.8354 79.0052 74.5101 79.6766 74.9983 80.5581C75.4933 81.4397 75.7409 82.5179 75.7409 83.7927ZM68.2748 83.7927C68.2748 84.4505 68.3325 85.0065 68.4478 85.4609C68.563 85.9084 68.7461 86.2509 68.997 86.4882C69.2547 86.7188 69.5904 86.834 70.004 86.834C70.4177 86.834 70.7466 86.7188 70.9907 86.4882C71.2348 86.2509 71.4111 85.9084 71.5196 85.4609C71.6349 85.0065 71.6925 84.4505 71.6925 83.7927C71.6925 83.1349 71.6349 82.5857 71.5196 82.1449C71.4111 81.7041 71.2314 81.3719 70.9805 81.1481C70.7364 80.9243 70.4041 80.8124 69.9837 80.8124C69.3802 80.8124 68.9428 81.0633 68.6715 81.5651C68.4071 82.0669 68.2748 82.8095 68.2748 83.7927Z" fill="#F6A131"></path><path d="M77.0835 85.5829V82.4094H82.8305V85.5829H77.0835Z" fill="#F6A131"></path><path d="M98.7187 77.8525C100.034 77.8525 101.038 78.1881 101.729 78.8595C102.428 79.5308 102.777 80.6056 102.777 82.0839V89.5804H98.8V83.3146C98.8 82.4399 98.6814 81.833 98.444 81.4939C98.2135 81.1481 97.8676 80.9752 97.4065 80.9752C96.7623 80.9752 96.3148 81.2566 96.0639 81.8194C95.8197 82.3822 95.6977 83.179 95.6977 84.2098V89.5804H91.7104V83.3146C91.7104 82.7586 91.6595 82.311 91.5578 81.972C91.4629 81.6261 91.3171 81.3752 91.1204 81.2193C90.9238 81.0565 90.6763 80.9752 90.3779 80.9752C89.9236 80.9752 89.5676 81.1142 89.3099 81.3922C89.059 81.6634 88.8827 82.0635 88.7809 82.5925C88.6792 83.1214 88.6284 83.769 88.6284 84.5352V89.5804H84.6512V78.0559H87.6519L88.2317 79.4799H88.3436C88.547 79.168 88.8081 78.89 89.1268 78.6458C89.4523 78.4017 89.8354 78.2085 90.2762 78.0661C90.7237 77.9237 91.2323 77.8525 91.8019 77.8525C92.6496 77.8525 93.348 77.9949 93.8973 78.2797C94.4466 78.5645 94.8941 78.9578 95.24 79.4596H95.362C95.7282 78.9442 96.1995 78.5475 96.7759 78.2695C97.3523 77.9915 97.9999 77.8525 98.7187 77.8525Z" fill="#F6A131"></path><path d="M111.108 77.8525C112.566 77.8525 113.705 78.2152 114.525 78.9408C115.346 79.6596 115.756 80.687 115.756 82.0228V89.5804H113L112.237 88.0546H112.155C111.83 88.4615 111.494 88.7938 111.148 89.0515C110.809 89.3024 110.419 89.4855 109.979 89.6007C109.538 89.7228 108.999 89.7838 108.361 89.7838C107.697 89.7838 107.1 89.6482 106.571 89.377C106.042 89.1057 105.625 88.6955 105.32 88.1462C105.015 87.5969 104.862 86.9019 104.862 86.061C104.862 84.8268 105.29 83.9114 106.144 83.3146C106.998 82.7179 108.236 82.3822 109.857 82.3076L111.779 82.2466V82.0839C111.779 81.5685 111.65 81.2023 111.393 80.9853C111.142 80.7683 110.803 80.6598 110.375 80.6598C109.921 80.6598 109.412 80.7412 108.85 80.904C108.294 81.0599 107.734 81.2634 107.171 81.5143L106.022 78.89C106.686 78.5509 107.439 78.2932 108.28 78.1169C109.121 77.9406 110.063 77.8525 111.108 77.8525ZM111.799 84.4335L110.884 84.4742C110.152 84.5013 109.636 84.6302 109.338 84.8607C109.046 85.0845 108.901 85.4066 108.901 85.8271C108.901 86.2204 109.006 86.5119 109.216 86.7018C109.426 86.8849 109.704 86.9765 110.05 86.9765C110.531 86.9765 110.942 86.8239 111.281 86.5187C111.627 86.2136 111.799 85.8169 111.799 85.3286V84.4335Z" fill="#F6A131"></path><path d="M125.674 77.8525C126.86 77.8525 127.83 78.1881 128.583 78.8595C129.335 79.5308 129.712 80.6056 129.712 82.0839V89.5804H125.735V83.2943C125.735 82.528 125.623 81.9516 125.399 81.5651C125.182 81.1718 124.829 80.9752 124.341 80.9752C123.588 80.9752 123.083 81.2837 122.826 81.9008C122.568 82.5111 122.439 83.3892 122.439 84.5352V89.5804H118.462V78.0559H121.463L122.002 79.5816H122.154C122.398 79.2155 122.69 78.9035 123.029 78.6458C123.368 78.3882 123.758 78.1915 124.199 78.0559C124.639 77.9203 125.131 77.8525 125.674 77.8525Z" fill="#F6A131"></path><path d="M143.627 78.0559V89.5804H140.626L140.128 88.1462H139.894C139.656 88.5327 139.355 88.848 138.988 89.0922C138.629 89.3295 138.229 89.5024 137.788 89.6109C137.347 89.7262 136.89 89.7838 136.415 89.7838C135.662 89.7838 134.981 89.638 134.37 89.3465C133.767 89.0549 133.285 88.5971 132.926 87.9733C132.573 87.3494 132.397 86.5458 132.397 85.5626V78.0559H136.374V84.3522C136.374 85.0981 136.479 85.6677 136.69 86.061C136.907 86.4475 137.259 86.6408 137.747 86.6408C138.249 86.6408 138.636 86.5052 138.907 86.2339C139.185 85.9627 139.378 85.5626 139.487 85.0337C139.595 84.5047 139.65 83.8605 139.65 83.101V78.0559H143.627Z" fill="#F6A131"></path><path d="M153.412 81.0362H150.96V89.5804H146.983V81.0362H145.458V79.0832L147.065 78.1067V77.9135C147.065 76.9167 147.197 76.1063 147.461 75.4825C147.726 74.8518 148.146 74.3873 148.723 74.0889C149.299 73.7906 150.052 73.6414 150.981 73.6414C151.577 73.6414 152.117 73.6888 152.598 73.7838C153.086 73.8787 153.595 74.0143 154.124 74.1907L153.269 76.7641C153.073 76.7098 152.852 76.6624 152.608 76.6217C152.371 76.581 152.113 76.5607 151.835 76.5607C151.53 76.5607 151.306 76.6556 151.164 76.8455C151.028 77.0285 150.96 77.3303 150.96 77.7507V78.0559H153.412V81.0362Z" fill="#F6A131"></path><path d="M160.603 77.8525C162.061 77.8525 163.2 78.2152 164.021 78.9408C164.841 79.6596 165.252 80.687 165.252 82.0228V89.5804H162.495L161.732 88.0546H161.651C161.325 88.4615 160.99 88.7938 160.644 89.0515C160.305 89.3024 159.915 89.4855 159.474 89.6007C159.033 89.7228 158.494 89.7838 157.857 89.7838C157.192 89.7838 156.596 89.6482 156.067 89.377C155.538 89.1057 155.121 88.6955 154.815 88.1462C154.51 87.5969 154.358 86.9019 154.358 86.061C154.358 84.8268 154.785 83.9114 155.639 83.3146C156.494 82.7179 157.731 82.3822 159.352 82.3076L161.274 82.2466V82.0839C161.274 81.5685 161.146 81.2023 160.888 80.9853C160.637 80.7683 160.298 80.6598 159.871 80.6598C159.416 80.6598 158.908 80.7412 158.345 80.904C157.789 81.0599 157.23 81.2634 156.667 81.5143L155.517 78.89C156.182 78.5509 156.935 78.2932 157.775 78.1169C158.616 77.9406 159.559 77.8525 160.603 77.8525ZM161.295 84.4335L160.379 84.4742C159.647 84.5013 159.132 84.6302 158.833 84.8607C158.542 85.0845 158.396 85.4066 158.396 85.8271C158.396 86.2204 158.501 86.5119 158.711 86.7018C158.921 86.8849 159.199 86.9765 159.545 86.9765C160.027 86.9765 160.437 86.8239 160.776 86.5187C161.122 86.2136 161.295 85.8169 161.295 85.3286V84.4335Z" fill="#F6A131"></path><path d="M173.206 89.7838C172.04 89.7838 171.026 89.577 170.165 89.1634C169.303 88.7429 168.635 88.0987 168.161 87.2307C167.693 86.356 167.459 85.2371 167.459 83.8741C167.459 82.4772 167.72 81.3346 168.242 80.4462C168.771 79.5579 169.493 78.9035 170.409 78.4831C171.324 78.0627 172.362 77.8525 173.521 77.8525C174.226 77.8525 174.894 77.9304 175.525 78.0864C176.162 78.2424 176.752 78.456 177.295 78.7272L176.125 81.6668C175.65 81.4566 175.206 81.2905 174.793 81.1684C174.386 81.0396 173.962 80.9752 173.521 80.9752C173.121 80.9752 172.768 81.0803 172.463 81.2905C172.158 81.5007 171.921 81.8194 171.751 82.2466C171.582 82.667 171.497 83.2028 171.497 83.8537C171.497 84.5183 171.582 85.054 171.751 85.4609C171.928 85.8677 172.168 86.1627 172.474 86.3458C172.785 86.5289 173.141 86.6204 173.542 86.6204C174.118 86.6204 174.691 86.5323 175.261 86.356C175.837 86.1729 176.383 85.922 176.898 85.6033V88.7667C176.424 89.0786 175.888 89.3261 175.291 89.5092C174.694 89.6923 173.999 89.7838 173.206 89.7838Z" fill="#F6A131"></path><path d="M184.832 86.6408C185.191 86.6408 185.52 86.6035 185.819 86.5289C186.117 86.4543 186.429 86.3594 186.755 86.2441V89.143C186.321 89.3329 185.859 89.4855 185.371 89.6007C184.89 89.7228 184.273 89.7838 183.52 89.7838C182.774 89.7838 182.116 89.6686 181.547 89.438C180.977 89.2007 180.533 88.7938 180.214 88.2174C179.902 87.6342 179.746 86.8239 179.746 85.7864V81.0362H178.353V79.4189L180.123 78.1678L181.15 75.7469H183.754V78.0559H186.582V81.0362H183.754V85.5219C183.754 85.8949 183.849 86.1763 184.039 86.3661C184.229 86.5492 184.493 86.6408 184.832 86.6408Z" fill="#F6A131"></path><path d="M199.978 78.0559V89.5804H196.977L196.479 88.1462H196.245C196.007 88.5327 195.706 88.848 195.339 89.0922C194.98 89.3295 194.58 89.5024 194.139 89.6109C193.698 89.7262 193.241 89.7838 192.766 89.7838C192.013 89.7838 191.332 89.638 190.721 89.3465C190.118 89.0549 189.637 88.5971 189.277 87.9733C188.925 87.3494 188.748 86.5458 188.748 85.5626V78.0559H192.725V84.3522C192.725 85.0981 192.83 85.6677 193.041 86.061C193.258 86.4475 193.61 86.6408 194.098 86.6408C194.6 86.6408 194.987 86.5052 195.258 86.2339C195.536 85.9627 195.729 85.5626 195.838 85.0337C195.946 84.5047 196.001 83.8605 196.001 83.101V78.0559H199.978Z" fill="#F6A131"></path><path d="M209.682 77.8525C209.898 77.8525 210.126 77.8694 210.363 77.9033C210.6 77.9304 210.777 77.9542 210.892 77.9745L210.536 81.7279C210.407 81.694 210.241 81.6668 210.038 81.6465C209.834 81.6194 209.549 81.6058 209.183 81.6058C208.932 81.6058 208.664 81.6295 208.38 81.677C208.095 81.7245 207.823 81.8262 207.566 81.9822C207.315 82.1313 207.108 82.3619 206.945 82.6738C206.783 82.979 206.701 83.3926 206.701 83.9148V89.5804H202.724V78.0559H205.684L206.305 79.897H206.498C206.708 79.5172 206.976 79.1748 207.301 78.8696C207.634 78.5577 208.003 78.3102 208.41 78.1271C208.824 77.944 209.248 77.8525 209.682 77.8525Z" fill="#F6A131"></path><path d="M216.507 78.0559V89.5804H212.53V78.0559H216.507ZM214.533 73.4176C215.103 73.4176 215.598 73.5363 216.018 73.7736C216.446 74.011 216.659 74.4822 216.659 75.1875C216.659 75.8724 216.446 76.3369 216.018 76.581C215.598 76.8183 215.103 76.937 214.533 76.937C213.95 76.937 213.452 76.8183 213.038 76.581C212.631 76.3369 212.428 75.8724 212.428 75.1875C212.428 74.4822 212.631 74.011 213.038 73.7736C213.452 73.5363 213.95 73.4176 214.533 73.4176Z" fill="#F6A131"></path><path d="M226.495 77.8525C227.682 77.8525 228.652 78.1881 229.404 78.8595C230.157 79.5308 230.533 80.6056 230.533 82.0839V89.5804H226.556V83.2943C226.556 82.528 226.444 81.9516 226.221 81.5651C226.004 81.1718 225.651 80.9752 225.163 80.9752C224.41 80.9752 223.905 81.2837 223.647 81.9008C223.39 82.5111 223.261 83.3892 223.261 84.5352V89.5804H219.284V78.0559H222.284L222.823 79.5816H222.976C223.22 79.2155 223.512 78.9035 223.851 78.6458C224.19 78.3882 224.58 78.1915 225.02 78.0559C225.461 77.9203 225.953 77.8525 226.495 77.8525Z" fill="#F6A131"></path><path d="M237.176 94.5849C235.541 94.5849 234.28 94.3102 233.392 93.761C232.51 93.2185 232.069 92.4353 232.069 91.4113C232.069 90.7264 232.283 90.1602 232.71 89.7126C233.137 89.2651 233.778 88.943 234.633 88.7463C234.28 88.5971 233.971 88.3564 233.707 88.0241C233.449 87.6919 233.32 87.363 233.32 87.0375C233.32 86.6781 233.419 86.3628 233.615 86.0915C233.812 85.8135 234.222 85.4846 234.846 85.1049C234.249 84.8404 233.778 84.4267 233.432 83.8639C233.093 83.3011 232.924 82.6162 232.924 81.8092C232.924 80.9752 233.114 80.2631 233.493 79.6732C233.88 79.0832 234.439 78.6323 235.172 78.3204C235.911 78.0084 236.809 77.8525 237.867 77.8525C238.01 77.8525 238.227 77.866 238.518 77.8931C238.81 77.9135 239.105 77.9406 239.403 77.9745C239.702 78.0016 239.932 78.0288 240.095 78.0559H244.113V79.9783L242.536 80.5581C242.645 80.7548 242.726 80.9684 242.78 81.1989C242.834 81.4295 242.862 81.6736 242.862 81.9313C242.862 83.1722 242.424 84.1352 241.549 84.8201C240.681 85.5049 239.383 85.8474 237.654 85.8474C237.226 85.8474 236.887 85.8203 236.636 85.766C236.589 85.8542 236.552 85.9423 236.525 86.0305C236.504 86.1119 236.494 86.1898 236.494 86.2644C236.494 86.4204 236.586 86.5458 236.769 86.6408C236.959 86.7289 237.186 86.79 237.45 86.8239C237.721 86.8578 237.979 86.8747 238.223 86.8747H240.136C241.431 86.8747 242.4 87.146 243.045 87.6885C243.689 88.231 244.011 89.0481 244.011 90.1398C244.011 91.5435 243.411 92.6353 242.211 93.4151C241.017 94.195 239.339 94.5849 237.176 94.5849ZM237.369 92.103C237.85 92.103 238.335 92.0589 238.823 91.9707C239.312 91.8894 239.722 91.7537 240.054 91.5639C240.386 91.374 240.553 91.1231 240.553 90.8112C240.553 90.5738 240.454 90.3941 240.258 90.2721C240.061 90.1568 239.807 90.0788 239.495 90.0381C239.183 89.9974 238.854 89.9771 238.508 89.9771H236.962C236.677 89.9771 236.416 90.0212 236.179 90.1093C235.948 90.2043 235.765 90.3297 235.629 90.4857C235.494 90.6416 235.426 90.818 235.426 91.0146C235.426 91.3401 235.602 91.6012 235.955 91.7978C236.308 92.0013 236.779 92.103 237.369 92.103ZM237.908 83.5995C238.288 83.5995 238.579 83.4537 238.783 83.1621C238.993 82.8705 239.098 82.4331 239.098 81.8499C239.098 81.2532 239 80.8056 238.803 80.5073C238.606 80.2089 238.308 80.0597 237.908 80.0597C237.494 80.0597 237.186 80.2089 236.982 80.5073C236.779 80.7989 236.677 81.2396 236.677 81.8296C236.677 82.4195 236.779 82.8637 236.982 83.1621C237.186 83.4537 237.494 83.5995 237.908 83.5995Z" fill="#F6A131"></path><path d="M256.664 74.7094C258.55 74.7094 259.96 75.1197 260.896 75.9402C261.838 76.7607 262.31 77.927 262.31 79.4392C262.31 80.1173 262.211 80.7683 262.015 81.3922C261.825 82.0161 261.51 82.5721 261.069 83.0604C260.635 83.5486 260.055 83.9351 259.329 84.2199C258.611 84.5047 257.722 84.6471 256.664 84.6471H255.535V89.5804H251.518V74.7094H256.664ZM256.573 77.9542H255.535V81.3719H256.329C256.675 81.3719 256.997 81.3142 257.295 81.1989C257.593 81.0769 257.831 80.8836 258.007 80.6192C258.19 80.3479 258.282 79.9885 258.282 79.541C258.282 79.0731 258.143 78.6933 257.865 78.4017C257.587 78.1034 257.156 77.9542 256.573 77.9542Z" fill="#F6A131"></path><path d="M268.423 89.5804H264.446V73.7533H268.423V89.5804Z" fill="#F6A131"></path><path d="M276.804 77.8525C278.262 77.8525 279.402 78.2152 280.222 78.9408C281.043 79.6596 281.453 80.687 281.453 82.0228V89.5804H278.696L277.933 88.0546H277.852C277.527 88.4615 277.191 88.7938 276.845 89.0515C276.506 89.3024 276.116 89.4855 275.675 89.6007C275.235 89.7228 274.695 89.7838 274.058 89.7838C273.394 89.7838 272.797 89.6482 272.268 89.377C271.739 89.1057 271.322 88.6955 271.017 88.1462C270.712 87.5969 270.559 86.9019 270.559 86.061C270.559 84.8268 270.986 83.9114 271.841 83.3146C272.695 82.7179 273.933 82.3822 275.553 82.3076L277.476 82.2466V82.0839C277.476 81.5685 277.347 81.2023 277.089 80.9853C276.838 80.7683 276.499 80.6598 276.072 80.6598C275.618 80.6598 275.109 80.7412 274.546 80.904C273.99 81.0599 273.431 81.2634 272.868 81.5143L271.719 78.89C272.383 78.5509 273.136 78.2932 273.977 78.1169C274.818 77.9406 275.76 77.8525 276.804 77.8525ZM277.496 84.4335L276.581 84.4742C275.848 84.5013 275.333 84.6302 275.035 84.8607C274.743 85.0845 274.597 85.4066 274.597 85.8271C274.597 86.2204 274.702 86.5119 274.912 86.7018C275.123 86.8849 275.401 86.9765 275.747 86.9765C276.228 86.9765 276.638 86.8239 276.977 86.5187C277.323 86.2136 277.496 85.8169 277.496 85.3286V84.4335Z" fill="#F6A131"></path><path d="M289.804 86.6408C290.163 86.6408 290.492 86.6035 290.79 86.5289C291.089 86.4543 291.401 86.3594 291.726 86.2441V89.143C291.292 89.3329 290.831 89.4855 290.343 89.6007C289.861 89.7228 289.244 89.7838 288.492 89.7838C287.746 89.7838 287.088 89.6686 286.518 89.438C285.949 89.2007 285.505 88.7938 285.186 88.2174C284.874 87.6342 284.718 86.8239 284.718 85.7864V81.0362H283.324V79.4189L285.094 78.1678L286.122 75.7469H288.726V78.0559H291.553V81.0362H288.726V85.5219C288.726 85.8949 288.821 86.1763 289.01 86.3661C289.2 86.5492 289.465 86.6408 289.804 86.6408Z" fill="#F6A131"></path><path d="M300.779 81.0362H298.328V89.5804H294.351V81.0362H292.825V79.0832L294.432 78.1067V77.9135C294.432 76.9167 294.564 76.1063 294.829 75.4825C295.093 74.8518 295.514 74.3873 296.09 74.0889C296.666 73.7906 297.419 73.6414 298.348 73.6414C298.945 73.6414 299.484 73.6888 299.965 73.7838C300.454 73.8787 300.962 74.0143 301.491 74.1907L300.637 76.7641C300.44 76.7098 300.22 76.6624 299.975 76.6217C299.738 76.581 299.48 76.5607 299.202 76.5607C298.897 76.5607 298.674 76.6556 298.531 76.8455C298.395 77.0285 298.328 77.3303 298.328 77.7507V78.0559H300.779V81.0362Z" fill="#F6A131"></path><path d="M313.351 83.7927C313.351 84.7556 313.219 85.6101 312.955 86.356C312.69 87.1019 312.307 87.7292 311.805 88.2377C311.303 88.7463 310.696 89.1328 309.984 89.3973C309.272 89.655 308.469 89.7838 307.574 89.7838C306.74 89.7838 305.973 89.655 305.275 89.3973C304.583 89.1328 303.98 88.7463 303.464 88.2377C302.949 87.7292 302.549 87.1019 302.264 86.356C301.986 85.6101 301.847 84.7556 301.847 83.7927C301.847 82.5179 302.078 81.4397 302.539 80.5581C303.007 79.6766 303.671 79.0052 304.532 78.5441C305.4 78.083 306.435 77.8525 307.635 77.8525C308.74 77.8525 309.723 78.083 310.585 78.5441C311.446 79.0052 312.12 79.6766 312.609 80.5581C313.104 81.4397 313.351 82.5179 313.351 83.7927ZM305.885 83.7927C305.885 84.4505 305.943 85.0065 306.058 85.4609C306.173 85.9084 306.357 86.2509 306.607 86.4882C306.865 86.7188 307.201 86.834 307.614 86.834C308.028 86.834 308.357 86.7188 308.601 86.4882C308.845 86.2509 309.021 85.9084 309.13 85.4609C309.245 85.0065 309.303 84.4505 309.303 83.7927C309.303 83.1349 309.245 82.5857 309.13 82.1449C309.021 81.7041 308.842 81.3719 308.591 81.1481C308.347 80.9243 308.015 80.8124 307.594 80.8124C306.991 80.8124 306.553 81.0633 306.282 81.5651C306.017 82.0669 305.885 82.8095 305.885 83.7927Z" fill="#F6A131"></path><path d="M322.587 77.8525C322.804 77.8525 323.031 77.8694 323.269 77.9033C323.506 77.9304 323.682 77.9542 323.798 77.9745L323.442 81.7279C323.313 81.694 323.147 81.6668 322.943 81.6465C322.74 81.6194 322.455 81.6058 322.089 81.6058C321.838 81.6058 321.57 81.6295 321.285 81.677C321 81.7245 320.729 81.8262 320.471 81.9822C320.221 82.1313 320.014 82.3619 319.851 82.6738C319.688 82.979 319.607 83.3926 319.607 83.9148V89.5804H315.63V78.0559H318.59L319.21 79.897H319.403C319.614 79.5172 319.881 79.1748 320.207 78.8696C320.539 78.5577 320.909 78.3102 321.316 78.1271C321.729 77.944 322.153 77.8525 322.587 77.8525Z" fill="#F6A131"></path><path d="M339.482 77.8525C340.798 77.8525 341.801 78.1881 342.493 78.8595C343.192 79.5308 343.541 80.6056 343.541 82.0839V89.5804H339.564V83.3146C339.564 82.4399 339.445 81.833 339.208 81.4939C338.977 81.1481 338.631 80.9752 338.17 80.9752C337.526 80.9752 337.078 81.2566 336.827 81.8194C336.583 82.3822 336.461 83.179 336.461 84.2098V89.5804H332.474V83.3146C332.474 82.7586 332.423 82.311 332.321 81.972C332.226 81.6261 332.081 81.3752 331.884 81.2193C331.687 81.0565 331.44 80.9752 331.142 80.9752C330.687 80.9752 330.331 81.1142 330.073 81.3922C329.823 81.6634 329.646 82.0635 329.545 82.5925C329.443 83.1214 329.392 83.769 329.392 84.5352V89.5804H325.415V78.0559H328.415L328.995 79.4799H329.107C329.311 79.168 329.572 78.89 329.89 78.6458C330.216 78.4017 330.599 78.2085 331.04 78.0661C331.487 77.9237 331.996 77.8525 332.566 77.8525C333.413 77.8525 334.112 77.9949 334.661 78.2797C335.21 78.5645 335.658 78.9578 336.004 79.4596H336.126C336.492 78.9442 336.963 78.5475 337.539 78.2695C338.116 77.9915 338.763 77.8525 339.482 77.8525Z" fill="#F6A131"></path><path d="M345.748 87.8919C345.748 87.1731 345.958 86.6679 346.379 86.3763C346.806 86.0847 347.318 85.9389 347.915 85.9389C348.477 85.9389 348.966 86.0847 349.379 86.3763C349.793 86.6679 350 87.1731 350 87.8919C350 88.5768 349.793 89.0718 349.379 89.377C348.966 89.6821 348.477 89.8347 347.915 89.8347C347.318 89.8347 346.806 89.6821 346.379 89.377C345.958 89.0718 345.748 88.5768 345.748 87.8919Z" fill="#F6A131"></path></svg>